<svg version="1.1" xmlns="http://www.w3.org/2000/svg" viewBox="0 0 795.2623167322084 1651.9323037551526" width="795.2623167322084" height="1651.9323037551526">
  <!-- svg-source:excalidraw -->
  
  <defs>
    <style class="style-fonts">
      @font-face {
        font-family: "Virgil";
        src: url("https://excalidraw.com/Virgil.woff2");
      }
      @font-face {
        font-family: "Cascadia";
        src: url("https://excalidraw.com/Cascadia.woff2");
      }
    </style>
    
  </defs>
  <rect x="0" y="0" width="795.2623167322084" height="1651.9323037551526" fill="#ffffff"></rect><g stroke-linecap="round" transform="translate(205.26231673220843 10) rotate(0 120 48.5)"><path d="M24.25 0 M24.25 0 C77.39 -0.95, 131.07 -0.5, 215.75 0 M24.25 0 C82.76 0.01, 141.72 0.97, 215.75 0 M215.75 0 C231.88 1.17, 240.74 7.13, 240 24.25 M215.75 0 C233.89 0.14, 238.03 7, 240 24.25 M240 24.25 C239.05 38.93, 238.69 53.38, 240 72.75 M240 24.25 C240.93 38.73, 240.36 52.99, 240 72.75 M240 72.75 C239.23 89.55, 233.87 97.47, 215.75 97 M240 72.75 C242.28 90.53, 231.98 97.02, 215.75 97 M215.75 97 C154.02 97.4, 92.14 96.19, 24.25 97 M215.75 97 C158.79 97.66, 102.84 98.73, 24.25 97 M24.25 97 C7.38 97.63, 0.77 90.53, 0 72.75 M24.25 97 C10.12 97.28, 1.01 87.22, 0 72.75 M0 72.75 C1.62 52.43, 0.08 34.25, 0 24.25 M0 72.75 C-0.58 55.96, 1.03 40.4, 0 24.25 M0 24.25 C0.59 7.16, 9.4 1.95, 24.25 0 M0 24.25 C-1.82 8.27, 8.97 0.74, 24.25 0" stroke="#1e1e1e" stroke-width="1" fill="none"></path></g><g transform="translate(260.66235640506 46) rotate(0 64.59996032714844 12.5)"><text x="64.59996032714844" y="0" font-family="Virgil, Segoe UI Emoji" font-size="20px" fill="#1e1e1e" text-anchor="middle" style="white-space: pre;" direction="ltr" dominant-baseline="text-before-edge">Gather data</text></g><g stroke-linecap="round" transform="translate(204.26231673220843 416) rotate(0 120 48.5)"><path d="M24.25 0 M24.25 0 C72.37 -1.29, 118.77 -1.24, 215.75 0 M24.25 0 C71.31 -0.02, 119.77 0.92, 215.75 0 M215.75 0 C233.03 -0.47, 241.3 9.46, 240 24.25 M215.75 0 C233.59 0.15, 240.5 6.05, 240 24.25 M240 24.25 C239.45 33.97, 238.58 45.43, 240 72.75 M240 24.25 C239.16 43.75, 240.37 62.61, 240 72.75 M240 72.75 C241.05 89.03, 230.3 98.51, 215.75 97 M240 72.75 C238.07 88.09, 229.8 94.91, 215.75 97 M215.75 97 C167.7 97.43, 122.51 97.57, 24.25 97 M215.75 97 C138.94 94.78, 63.03 94.78, 24.25 97 M24.25 97 C7.64 98.16, 0.81 88.62, 0 72.75 M24.25 97 C7.46 94.91, -1.49 89.14, 0 72.75 M0 72.75 C1.3 57.29, -2.17 42.23, 0 24.25 M0 72.75 C0.83 55.14, 1.18 37.67, 0 24.25 M0 24.25 C0.42 8.76, 6.5 -1.35, 24.25 0 M0 24.25 C-0.88 10.1, 7.51 1.02, 24.25 0" stroke="#1e1e1e" stroke-width="1" fill="none"></path></g><g transform="translate(268.8923673913881 439.5) rotate(0 55.36994934082031 25)"><text x="55.36994934082031" y="0" font-family="Virgil, Segoe UI Emoji" font-size="20px" fill="#1e1e1e" text-anchor="middle" style="white-space: pre;" direction="ltr" dominant-baseline="text-before-edge">List values</text><text x="55.36994934082031" y="25" font-family="Virgil, Segoe UI Emoji" font-size="20px" fill="#1e1e1e" text-anchor="middle" style="white-space: pre;" direction="ltr" dominant-baseline="text-before-edge">for p</text></g><g stroke-linecap="round" transform="translate(201.26231673220843 193) rotate(0 120 48.5)"><path d="M24.25 0 M24.25 0 C89.03 0.5, 158 1.06, 215.75 0 M24.25 0 C81.41 -2.18, 136.57 -2.68, 215.75 0 M215.75 0 C232.75 -1.62, 239.48 7.95, 240 24.25 M215.75 0 C230.87 -0.83, 241.38 9.13, 240 24.25 M240 24.25 C240 45.02, 240.3 60.32, 240 72.75 M240 24.25 C239.52 37.38, 240.36 51.52, 240 72.75 M240 72.75 C240.43 90.27, 232 95.56, 215.75 97 M240 72.75 C240.61 86.77, 229.74 97.94, 215.75 97 M215.75 97 C145.96 95.42, 76.95 96.17, 24.25 97 M215.75 97 C154.17 97.86, 93.14 98.89, 24.25 97 M24.25 97 C6.87 97.84, 0.5 87.39, 0 72.75 M24.25 97 C8.57 98.23, -2.02 90.41, 0 72.75 M0 72.75 C-1.98 61.39, -0.84 48.29, 0 24.25 M0 72.75 C0.24 62.34, -0.97 52.71, 0 24.25 M0 24.25 C-1.6 8.02, 8.49 -1.25, 24.25 0 M0 24.25 C1.35 10.13, 8.32 1.25, 24.25 0" stroke="#1e1e1e" stroke-width="1" fill="none"></path></g><g transform="translate(269.15236189822406 229) rotate(0 52.109954833984375 12.5)"><text x="52.109954833984375" y="0" font-family="Virgil, Segoe UI Emoji" font-size="20px" fill="#1e1e1e" text-anchor="middle" style="white-space: pre;" direction="ltr" dominant-baseline="text-before-edge">Stationary</text></g><g stroke-linecap="round" transform="translate(203.26231673220843 603) rotate(0 120 48.5)"><path d="M24.25 0 M24.25 0 C86.4 -1.46, 150.59 -2.51, 215.75 0 M24.25 0 C92.22 -1.16, 161.31 -2.22, 215.75 0 M215.75 0 C233.28 -1.85, 240.95 7.26, 240 24.25 M215.75 0 C230.94 -0.19, 237.8 7.3, 240 24.25 M240 24.25 C241.4 42, 240.84 60.15, 240 72.75 M240 24.25 C238.67 35.19, 240 44.65, 240 72.75 M240 72.75 C240.63 88.35, 233.16 96.25, 215.75 97 M240 72.75 C238.69 87.09, 229.66 95.21, 215.75 97 M215.75 97 C167.38 98.15, 117.99 96.72, 24.25 97 M215.75 97 C167.61 96.45, 121.07 96.56, 24.25 97 M24.25 97 C7.51 95.58, 1.1 90.45, 0 72.75 M24.25 97 C6.14 96.61, 1.75 90.4, 0 72.75 M0 72.75 C1.19 58.27, 1.76 46.65, 0 24.25 M0 72.75 C-0.51 59.33, 0.21 44.12, 0 24.25 M0 24.25 C-0.71 7.96, 8.17 -0.99, 24.25 0 M0 24.25 C1.84 6.63, 7.76 -1.45, 24.25 0" stroke="#1e1e1e" stroke-width="1" fill="none"></path></g><g transform="translate(261.63236525515765 626.5) rotate(0 61.62995147705078 25)"><text x="61.62995147705078" y="0" font-family="Virgil, Segoe UI Emoji" font-size="20px" fill="#1e1e1e" text-anchor="middle" style="white-space: pre;" direction="ltr" dominant-baseline="text-before-edge">Fit every </text><text x="61.62995147705078" y="25" font-family="Virgil, Segoe UI Emoji" font-size="20px" fill="#1e1e1e" text-anchor="middle" style="white-space: pre;" direction="ltr" dominant-baseline="text-before-edge">VAR(p) model</text></g><g stroke-linecap="round" transform="translate(205.26231673220843 785) rotate(0 120 48.5)"><path d="M24.25 0 M24.25 0 C94.7 0.58, 165.81 1.26, 215.75 0 M24.25 0 C73.92 -2.18, 124.17 -1.98, 215.75 0 M215.75 0 C230.33 -1.63, 238.14 7.24, 240 24.25 M215.75 0 C230.32 0.67, 241.95 5.86, 240 24.25 M240 24.25 C240.44 36.56, 239.11 45.59, 240 72.75 M240 24.25 C239.67 35.02, 240.16 45.73, 240 72.75 M240 72.75 C239.24 89.81, 233.62 98.14, 215.75 97 M240 72.75 C240.64 89.47, 232.02 97.78, 215.75 97 M215.75 97 C154.49 96.8, 94.3 97.76, 24.25 97 M215.75 97 C169.43 94.68, 124.34 94.34, 24.25 97 M24.25 97 C7.25 96.85, -1.86 87.06, 0 72.75 M24.25 97 C9.57 94.82, -1.34 89.28, 0 72.75 M0 72.75 C-2.04 58.91, 0.84 49.21, 0 24.25 M0 72.75 C0.64 54.11, 0.36 36.02, 0 24.25 M0 24.25 C-1.02 8.32, 6.38 -0.11, 24.25 0 M0 24.25 C0.24 9.66, 8.5 0.7, 24.25 0" stroke="#1e1e1e" stroke-width="1" fill="none"></path></g><g transform="translate(240.41239455203265 808.5) rotate(0 84.84992218017578 25)"><text x="84.84992218017578" y="0" font-family="Virgil, Segoe UI Emoji" font-size="20px" fill="#1e1e1e" text-anchor="middle" style="white-space: pre;" direction="ltr" dominant-baseline="text-before-edge">Select model with</text><text x="84.84992218017578" y="25" font-family="Virgil, Segoe UI Emoji" font-size="20px" fill="#1e1e1e" text-anchor="middle" style="white-space: pre;" direction="ltr" dominant-baseline="text-before-edge">lowest AIC</text></g><g stroke-linecap="round" transform="translate(206.26231673220843 979) rotate(0 120 48.5)"><path d="M24.25 0 M24.25 0 C90.96 -0.03, 157.11 -0.31, 215.75 0 M24.25 0 C83.76 0.64, 142.17 1.76, 215.75 0 M215.75 0 C233.55 0.02, 240.64 8.5, 240 24.25 M215.75 0 C231.73 -1.85, 240.67 9.7, 240 24.25 M240 24.25 C241.06 35.45, 238.34 44.34, 240 72.75 M240 24.25 C239.47 37.04, 239.58 50.11, 240 72.75 M240 72.75 C238.82 89.91, 230.26 96.88, 215.75 97 M240 72.75 C238.69 89.07, 230.92 97.64, 215.75 97 M215.75 97 C171.82 96.85, 125.93 99.56, 24.25 97 M215.75 97 C174.02 96.72, 133.03 96.53, 24.25 97 M24.25 97 C9.33 95.53, 0.78 89.19, 0 72.75 M24.25 97 C7.21 95.04, 0.38 88.02, 0 72.75 M0 72.75 C-0.43 58.76, 1.32 48.84, 0 24.25 M0 72.75 C0.59 59.42, -0.53 46.37, 0 24.25 M0 24.25 C-0.4 6.32, 7.76 0.91, 24.25 0 M0 24.25 C0.32 7.37, 9.81 0.69, 24.25 0" stroke="#1e1e1e" stroke-width="1" fill="none"></path></g><g transform="translate(238.32238295535296 1002.5) rotate(0 87.93993377685547 25)"><text x="87.93993377685547" y="0" font-family="Virgil, Segoe UI Emoji" font-size="20px" fill="#1e1e1e" text-anchor="middle" style="white-space: pre;" direction="ltr" dominant-baseline="text-before-edge">Granger causality</text><text x="87.93993377685547" y="25" font-family="Virgil, Segoe UI Emoji" font-size="20px" fill="#1e1e1e" text-anchor="middle" style="white-space: pre;" direction="ltr" dominant-baseline="text-before-edge">test passed?</text></g><g stroke-linecap="round" transform="translate(60.7141198042475 1364.688441732787) rotate(0 120 48.5)"><path d="M24.25 0 M24.25 0 C78.23 1.23, 131.24 -0.22, 215.75 0 M24.25 0 C80.07 1.28, 133.85 -0.52, 215.75 0 M215.75 0 C233.06 -1.87, 238.98 8.72, 240 24.25 M215.75 0 C230.74 -0.5, 238.78 7.7, 240 24.25 M240 24.25 C240.52 36.9, 241.89 52.06, 240 72.75 M240 24.25 C240.75 36.21, 240.79 48.44, 240 72.75 M240 72.75 C241.88 88.55, 230.78 96.25, 215.75 97 M240 72.75 C239.57 90.68, 232.97 98.19, 215.75 97 M215.75 97 C150.58 98.14, 84.92 98.76, 24.25 97 M215.75 97 C164.07 95.66, 110.05 96.42, 24.25 97 M24.25 97 C9.92 97.47, 1.07 90.64, 0 72.75 M24.25 97 C7.34 95.25, -0.17 88.47, 0 72.75 M0 72.75 C-0.6 54.34, -1.62 36.97, 0 24.25 M0 72.75 C-1.46 60.18, -0.51 47.63, 0 24.25 M0 24.25 C-1.1 8.38, 6.12 -0.09, 24.25 0 M0 24.25 C-0.43 8.03, 8.97 0.18, 24.25 0" stroke="#1e1e1e" stroke-width="1" fill="none"></path></g><g transform="translate(106.32418907914985 1388.188441732787) rotate(0 74.38993072509766 25)"><text x="74.38993072509766" y="0" font-family="Virgil, Segoe UI Emoji" font-size="20px" fill="#1e1e1e" text-anchor="middle" style="white-space: pre;" direction="ltr" dominant-baseline="text-before-edge">Q-Q plot shows</text><text x="74.38993072509766" y="25" font-family="Virgil, Segoe UI Emoji" font-size="20px" fill="#1e1e1e" text-anchor="middle" style="white-space: pre;" direction="ltr" dominant-baseline="text-before-edge"> straight line?</text></g><g stroke-linecap="round" transform="translate(371.2648731904768 1365.461006321806) rotate(0 120 48.5)"><path d="M24.25 0 M24.25 0 C69.29 0.49, 116.93 -1.05, 215.75 0 M24.25 0 C89.84 -2.33, 155.9 -1.2, 215.75 0 M215.75 0 C230.08 -1.82, 238.43 9.18, 240 24.25 M215.75 0 C233.11 2.12, 239.89 6.43, 240 24.25 M240 24.25 C241.37 39.16, 238.19 58.25, 240 72.75 M240 24.25 C240.69 41.32, 240.46 59.38, 240 72.75 M240 72.75 C241.29 87.92, 232.81 95.72, 215.75 97 M240 72.75 C240.56 87.73, 231.83 97.8, 215.75 97 M215.75 97 C146.79 96.04, 75.26 98.99, 24.25 97 M215.75 97 C158.79 98.36, 103.16 96.86, 24.25 97 M24.25 97 C6.49 95.36, 1.79 88.46, 0 72.75 M24.25 97 C9.77 98.78, -1.49 89.7, 0 72.75 M0 72.75 C-0.27 60.17, 1.35 46.63, 0 24.25 M0 72.75 C-1.1 57.08, -0.77 40.07, 0 24.25 M0 24.25 C1.18 6.68, 6.42 -0.88, 24.25 0 M0 24.25 C1.42 7.95, 8.14 1.15, 24.25 0" stroke="#1e1e1e" stroke-width="1" fill="none"></path></g><g transform="translate(423.7149235444807 1388.961006321806) rotate(0 67.5499496459961 25)"><text x="67.5499496459961" y="0" font-family="Virgil, Segoe UI Emoji" font-size="20px" fill="#1e1e1e" text-anchor="middle" style="white-space: pre;" direction="ltr" dominant-baseline="text-before-edge">Uncorrelated </text><text x="67.5499496459961" y="25" font-family="Virgil, Segoe UI Emoji" font-size="20px" fill="#1e1e1e" text-anchor="middle" style="white-space: pre;" direction="ltr" dominant-baseline="text-before-edge">residuals?</text></g><g stroke-linecap="round" transform="translate(204.94411167349688 1170.7271797651538) rotate(0 120 48.5)"><path d="M24.25 0 M24.25 0 C65.42 1.37, 107.22 2.29, 215.75 0 M24.25 0 C67.4 -1.5, 110.25 -1.03, 215.75 0 M215.75 0 C232 -0.44, 241.25 9.92, 240 24.25 M215.75 0 C232.46 0.84, 239.74 5.82, 240 24.25 M240 24.25 C241.75 41.67, 239.29 61.38, 240 72.75 M240 24.25 C240.23 36.53, 240.14 47.11, 240 72.75 M240 72.75 C240.47 87.48, 230.26 95.09, 215.75 97 M240 72.75 C240.74 90.61, 232.85 96.8, 215.75 97 M215.75 97 C167.24 100.17, 118.2 98.05, 24.25 97 M215.75 97 C142.57 98.14, 69.24 97.1, 24.25 97 M24.25 97 C8.32 96.64, 1.52 89.51, 0 72.75 M24.25 97 C8.91 99.03, -2.06 89.01, 0 72.75 M0 72.75 C0.97 59.19, 0.7 45.69, 0 24.25 M0 72.75 C-0.24 57.73, -0.7 41.06, 0 24.25 M0 24.25 C-0.86 8.41, 9.63 -1.4, 24.25 0 M0 24.25 C1.18 8.13, 8.48 -0.09, 24.25 0" stroke="#1e1e1e" stroke-width="1" fill="none"></path></g><g transform="translate(241.02418216910235 1206.7271797651538) rotate(0 83.91992950439453 12.5)"><text x="83.91992950439453" y="0" font-family="Virgil, Segoe UI Emoji" font-size="20px" fill="#1e1e1e" text-anchor="middle" style="white-space: pre;" direction="ltr" dominant-baseline="text-before-edge">Residual analysis</text></g><g stroke-linecap="round" transform="translate(545.2623167322084 193) rotate(0 120 48.5)"><path d="M24.25 0 M24.25 0 C69.49 -0.52, 115.63 -0.93, 215.75 0 M24.25 0 C97.17 -1.91, 172.31 -0.39, 215.75 0 M215.75 0 C231.57 -1.21, 238.85 7.67, 240 24.25 M215.75 0 C229.74 -1.3, 240.66 9.85, 240 24.25 M240 24.25 C241.26 42.06, 238.76 58.26, 240 72.75 M240 24.25 C239.64 41.26, 239.08 60.5, 240 72.75 M240 72.75 C239.37 87.38, 233.39 95.61, 215.75 97 M240 72.75 C238.89 86.83, 233.23 98.06, 215.75 97 M215.75 97 C165.57 95.84, 117.09 96.8, 24.25 97 M215.75 97 C161.07 96.47, 105.95 95.79, 24.25 97 M24.25 97 C8.69 97.51, 1.31 90.34, 0 72.75 M24.25 97 C7.53 97.37, 2.01 89.22, 0 72.75 M0 72.75 C-1.08 58.07, -2.41 48.48, 0 24.25 M0 72.75 C1.05 53.08, -0.01 34.36, 0 24.25 M0 24.25 C-1.23 7.63, 7.4 -0.15, 24.25 0 M0 24.25 C0.65 7.86, 10.32 -1.97, 24.25 0" stroke="#1e1e1e" stroke-width="1" fill="none"></path></g><g transform="translate(558.6224165246889 229) rotate(0 106.63990020751953 12.5)"><text x="106.63990020751953" y="0" font-family="Virgil, Segoe UI Emoji" font-size="20px" fill="#1e1e1e" text-anchor="middle" style="white-space: pre;" direction="ltr" dominant-baseline="text-before-edge">Apply transformations</text></g><g stroke-linecap="round"><g transform="translate(322.26231673220843 113) rotate(0 0.42043184951415924 38.58366586096119)"><path d="M0.53 -0.93 C0.81 12.06, 1.4 64.1, 1.5 77.06 M-0.65 1.2 C-0.46 14.39, 0.64 65.37, 0.81 78.1" stroke="#1e1e1e" stroke-width="1" fill="none"></path></g><g transform="translate(322.26231673220843 113) rotate(0 0.42043184951415924 38.58366586096119)"><path d="M-11.51 50.92 C-8.72 58.05, -6.06 66.74, 2.06 77.53 M-10.53 50.53 C-7.9 58.71, -4.98 65.71, 0.57 79.1" stroke="#1e1e1e" stroke-width="1" fill="none"></path></g><g transform="translate(322.26231673220843 113) rotate(0 0.42043184951415924 38.58366586096119)"><path d="M9.01 50.55 C6.03 57.87, 2.92 66.67, 2.06 77.53 M9.98 50.17 C6.77 58.48, 3.84 65.58, 0.57 79.1" stroke="#1e1e1e" stroke-width="1" fill="none"></path></g></g><mask></mask><g stroke-linecap="round"><g transform="translate(324.26231673220843 523) rotate(0 -0.48905666162158923 39.72351160108576)"><path d="M0.11 1.18 C0.02 14.3, 0.48 65.76, 0.49 78.69 M-1.29 0.75 C-1.68 13.53, -1.39 64.25, -0.73 76.94" stroke="#1e1e1e" stroke-width="1" fill="none"></path></g><g transform="translate(324.26231673220843 523) rotate(0 -0.48905666162158923 39.72351160108576)"><path d="M-9.72 48.15 C-6.3 58.39, -1.92 69.46, -0.54 76.97 M-11.21 48.59 C-9.69 54.7, -8 60.12, -0.16 77.84" stroke="#1e1e1e" stroke-width="1" fill="none"></path></g><g transform="translate(324.26231673220843 523) rotate(0 -0.48905666162158923 39.72351160108576)"><path d="M10.8 47.64 C6.29 58.1, 2.75 69.36, -0.54 76.97 M9.31 48.09 C6.66 54.11, 4.18 59.64, -0.16 77.84" stroke="#1e1e1e" stroke-width="1" fill="none"></path></g></g><mask></mask><g stroke-linecap="round"><g transform="translate(326.26231673220843 705) rotate(0 0.9624640929721409 39.577788325091774)"><path d="M0.78 0.89 C1.07 13.78, 2.3 64.52, 2.19 77.54 M-0.27 0.32 C-0.07 13.34, 1.39 66.02, 1.86 78.84" stroke="#1e1e1e" stroke-width="1" fill="none"></path></g><g transform="translate(326.26231673220843 705) rotate(0 0.9624640929721409 39.577788325091774)"><path d="M-7.79 52.96 C-6.22 58.87, -0.01 68.78, 0.73 78.18 M-10.21 50.56 C-7.26 58.69, -2.78 64.77, 1.13 78.86" stroke="#1e1e1e" stroke-width="1" fill="none"></path></g><g transform="translate(326.26231673220843 705) rotate(0 0.9624640929721409 39.577788325091774)"><path d="M12.72 52.32 C7.37 58.57, 6.66 68.71, 0.73 78.18 M10.3 49.92 C7.85 58.05, 6.93 64.3, 1.13 78.86" stroke="#1e1e1e" stroke-width="1" fill="none"></path></g></g><mask></mask><g stroke-linecap="round"><g transform="translate(327.29916313854164 886) rotate(0 0.08396506144606519 45.81590612008233)"><path d="M0.33 0 C0.45 15.16, 0.92 76.05, 1.13 91.09 M-0.96 -1.04 C-1.01 14.31, -0.08 77.3, 0.27 92.68" stroke="#1e1e1e" stroke-width="1" fill="none"></path></g><g transform="translate(327.29916313854164 886) rotate(0 0.08396506144606519 45.81590612008233)"><path d="M-10.49 64.93 C-6.76 74.86, -4.57 84.34, -0.78 92.95 M-10.17 64.88 C-6.47 73.94, -2.23 85.52, -0.5 93.13" stroke="#1e1e1e" stroke-width="1" fill="none"></path></g><g transform="translate(327.29916313854164 886) rotate(0 0.08396506144606519 45.81590612008233)"><path d="M10.03 64.57 C7 74.67, 2.42 84.27, -0.78 92.95 M10.34 64.52 C6.67 73.71, 3.53 85.42, -0.5 93.13" stroke="#1e1e1e" stroke-width="1" fill="none"></path></g></g><mask></mask><g stroke-linecap="round"><g transform="translate(277.0219114268547 1279.5976720850563) rotate(0 -47.510376032278316 39.91885479245525)"><path d="M0.74 -0.38 C-7.71 4.07, -34.59 13.41, -50.67 26.85 C-66.75 40.29, -88.56 71.13, -95.76 80.26 M-0.33 -1.63 C-8.95 3.01, -36.18 14.46, -51.69 28.31 C-67.2 42.16, -86.47 72.91, -93.38 81.47" stroke="#1e1e1e" stroke-width="1" fill="none"></path></g><g transform="translate(277.0219114268547 1279.5976720850563) rotate(0 -47.510376032278316 39.91885479245525)"><path d="M-85.84 52.39 C-87.88 59.69, -90.41 71.47, -91.45 80.39 M-85.71 52.92 C-87.31 58.55, -89.1 64.84, -93.64 82.05" stroke="#1e1e1e" stroke-width="1" fill="none"></path></g><g transform="translate(277.0219114268547 1279.5976720850563) rotate(0 -47.510376032278316 39.91885479245525)"><path d="M-69.2 64.4 C-76.24 68.2, -83.76 76.38, -91.45 80.39 M-69.07 64.93 C-74.34 67.81, -79.72 71.5, -93.64 82.05" stroke="#1e1e1e" stroke-width="1" fill="none"></path></g></g><mask></mask><g mask="url(#mask-M-5U2yPqFcf6kK6NhBV8R)" stroke-linecap="round"><g transform="translate(327.3149571748128 1083) rotate(0 -0.46416728626860504 42.662325079907646)"><path d="M-0.06 -0.57 C0.2 13.65, 0.66 70.25, 0.61 84.83 M-1.54 1.75 C-1.32 16.13, -0.1 71.99, -0.07 85.89" stroke="#1e1e1e" stroke-width="1" fill="none"></path></g><g transform="translate(327.3149571748128 1083) rotate(0 -0.46416728626860504 42.662325079907646)"><path d="M-11.65 58.67 C-9.94 63.31, -4.14 70.57, 0.6 85.61 M-10.08 58.76 C-6.41 68.91, -2.71 78.24, 0.65 86.64" stroke="#1e1e1e" stroke-width="1" fill="none"></path></g><g transform="translate(327.3149571748128 1083) rotate(0 -0.46416728626860504 42.662325079907646)"><path d="M8.87 58.4 C5.99 63.09, 7.19 70.41, 0.6 85.61 M10.44 58.49 C6.3 68.7, 2.18 78.13, 0.65 86.64" stroke="#1e1e1e" stroke-width="1" fill="none"></path></g></g><mask id="mask-M-5U2yPqFcf6kK6NhBV8R"><rect x="0" y="0" fill="#fff" width="427.4245277585443" height="1268.7271797651538"></rect><rect x="311.30976016687396" y="1113.363589882577" fill="#000" width="32.119964599609375" height="25" opacity="1"></rect></mask><g transform="translate(311.30976016687373 1113.363589882577) rotate(0 15.541029721670327 12.298735197330757)"><text x="16.059982299804688" y="0" font-family="Virgil, Segoe UI Emoji" font-size="20px" fill="#1e1e1e" text-anchor="middle" style="white-space: pre;" direction="ltr" dominant-baseline="text-before-edge">Yes</text></g><g mask="url(#mask-A_yDSsxkuIFDyHO7YZqio)" stroke-linecap="round"><g transform="translate(448.26231673220843 244) rotate(0 47.48304393709168 -0.14879971174650564)"><path d="M-1.16 -0.16 C14.31 -0.13, 78.13 0.84, 93.96 1.07 M0.43 -1.28 C16.16 -1.66, 80.18 -0.62, 96.13 -0.5" stroke="#1e1e1e" stroke-width="1" fill="none"></path></g><g transform="translate(448.26231673220843 244) rotate(0 47.48304393709168 -0.14879971174650564)"><path d="M67.56 7.7 C80.69 3.82, 92.06 1.21, 98.04 -1.31 M68 8.58 C78.66 5.76, 90.4 0.56, 95.56 0.17" stroke="#1e1e1e" stroke-width="1" fill="none"></path></g><g transform="translate(448.26231673220843 244) rotate(0 47.48304393709168 -0.14879971174650564)"><path d="M67.8 -12.82 C80.99 -8.61, 92.27 -3.12, 98.04 -1.31 M68.24 -11.94 C78.61 -6.63, 90.25 -3.71, 95.56 0.17" stroke="#1e1e1e" stroke-width="1" fill="none"></path></g></g><mask id="mask-A_yDSsxkuIFDyHO7YZqio"><rect x="0" y="0" fill="#fff" width="643.2623167322084" height="344"></rect><rect x="483.782328634064" y="231.5" fill="#000" width="23.959976196289062" height="25" opacity="1"></rect></mask><g transform="translate(483.782328634064 231.5) rotate(0 11.96303203523621 12.351200288253494)"><text x="11.979988098144531" y="0" font-family="Virgil, Segoe UI Emoji" font-size="20px" fill="#1e1e1e" text-anchor="middle" style="white-space: pre;" direction="ltr" dominant-baseline="text-before-edge">No</text></g><g stroke-linecap="round"><g transform="translate(665.2623167322084 304) rotate(0 -157.89259709789889 11.688626475768785)"><path d="M0.11 0.47 C-28.61 4.72, -120.06 27.2, -172.6 26.59 C-225.13 25.97, -291.21 1.74, -315.08 -3.22 M-1.29 -0.33 C-29.59 4.08, -117.76 25.05, -170.2 24.77 C-222.63 24.49, -291.58 2.46, -315.9 -2.02" stroke="#1e1e1e" stroke-width="1" fill="none"></path></g><g transform="translate(665.2623167322084 304) rotate(0 -157.89259709789889 11.688626475768785)"><path d="M-285.31 -6.44 C-293.34 -4.61, -302.94 -4.96, -316.15 -2.58 M-286.91 -6.09 C-297.4 -4.24, -308.75 -3.41, -315.81 -2.52" stroke="#1e1e1e" stroke-width="1" fill="none"></path></g><g transform="translate(665.2623167322084 304) rotate(0 -157.89259709789889 11.688626475768785)"><path d="M-290.08 13.52 C-296.97 9.81, -305.25 3.94, -316.15 -2.58 M-291.68 13.87 C-300.34 8.21, -309.89 1.49, -315.81 -2.52" stroke="#1e1e1e" stroke-width="1" fill="none"></path></g></g><mask></mask><g mask="url(#mask-fjFG7T8bwmdh_T8ZSe6Rl)" stroke-linecap="round"><g transform="translate(321.57515331368063 304.0000000000001) rotate(0 0.22958843323254996 51.72222132265097)"><path d="M0.46 0.93 C0.76 18.2, 0.88 86.16, 1.22 103.07 M-0.76 0.37 C-0.58 17.38, -0.32 84.87, 0.18 101.52" stroke="#1e1e1e" stroke-width="1" fill="none"></path></g><g transform="translate(321.57515331368063 304.0000000000001) rotate(0 0.22958843323254996 51.72222132265097)"><path d="M-8.96 73.21 C-6.17 82.26, -4.65 86.73, -0.85 99.65 M-9.66 74.05 C-8.77 78.49, -5.61 85.37, -0.3 101.36" stroke="#1e1e1e" stroke-width="1" fill="none"></path></g><g transform="translate(321.57515331368063 304.0000000000001) rotate(0 0.22958843323254996 51.72222132265097)"><path d="M11.56 72.89 C9.22 82.11, 5.63 86.65, -0.85 99.65 M10.86 73.74 C7.61 78.26, 6.63 85.2, -0.3 101.36" stroke="#1e1e1e" stroke-width="1" fill="none"></path></g></g><mask id="mask-fjFG7T8bwmdh_T8ZSe6Rl"><rect x="0" y="0" fill="#fff" width="422.96177265196854" height="506"></rect><rect x="306.20848068301996" y="342.5" fill="#000" width="32.119964599609375" height="25" opacity="1"></rect></mask><g transform="translate(306.20848068301984 342.5) rotate(0 15.596261063893223 13.22222132265108)"><text x="16.059982299804688" y="0" font-family="Virgil, Segoe UI Emoji" font-size="20px" fill="#1e1e1e" text-anchor="middle" style="white-space: pre;" direction="ltr" dominant-baseline="text-before-edge">Yes</text></g><g mask="url(#mask-FIIS9eFxIM9BGzvo1XnhS)" stroke-linecap="round"><g transform="translate(455.26231673220843 1025) rotate(0 45.09443779781924 0.9120912009384483)"><path d="M1.11 0.68 C16.29 0.8, 75.2 0.85, 89.95 0.88 M0.24 -0.01 C15.44 0.21, 74.68 1.56, 89.5 1.83" stroke="#1e1e1e" stroke-width="1" fill="none"></path></g><g transform="translate(455.26231673220843 1025) rotate(0 45.09443779781924 0.9120912009384483)"><path d="M62.24 13.09 C65.09 10.24, 70.95 8.02, 90.31 0.89 M60.22 10.6 C66.52 10.21, 72.8 7.49, 88.83 1.47" stroke="#1e1e1e" stroke-width="1" fill="none"></path></g><g transform="translate(455.26231673220843 1025) rotate(0 45.09443779781924 0.9120912009384483)"><path d="M62.66 -7.43 C65.45 -6.04, 71.23 -4.02, 90.31 0.89 M60.65 -9.92 C66.86 -6.16, 73.06 -4.75, 88.83 1.47" stroke="#1e1e1e" stroke-width="1" fill="none"></path></g></g><mask id="mask-FIIS9eFxIM9BGzvo1XnhS"><rect x="0" y="0" fill="#fff" width="644.2623167322084" height="1127"></rect><rect x="487.782328634064" y="1013.5" fill="#000" width="23.959976196289062" height="25" opacity="1"></rect></mask><g transform="translate(487.782328634064 1013.5) rotate(0 12.57442589596377 12.412091200938448)"><text x="11.979988098144531" y="0" font-family="Virgil, Segoe UI Emoji" font-size="20px" fill="#1e1e1e" text-anchor="middle" style="white-space: pre;" direction="ltr" dominant-baseline="text-before-edge">No</text></g><g transform="translate(556.1486803685721 1001.9220779220782) rotate(0 59.25994873046869 25)"><text x="59.25994873046875" y="0" font-family="Virgil, Segoe UI Emoji" font-size="20px" fill="#e03131" text-anchor="middle" style="white-space: pre;" direction="ltr" dominant-baseline="text-before-edge">Var(p) model</text><text x="59.25994873046875" y="25" font-family="Virgil, Segoe UI Emoji" font-size="20px" fill="#e03131" text-anchor="middle" style="white-space: pre;" direction="ltr" dominant-baseline="text-before-edge">is invalid</text></g><g transform="translate(291.6763745643226 1591.9323037551526) rotate(0 48.999961853027344 25)"><text x="48.999961853027344" y="0" font-family="Virgil, Segoe UI Emoji" font-size="20px" fill="#2f9e44" text-anchor="middle" style="white-space: pre;" direction="ltr" dominant-baseline="text-before-edge">Ready for</text><text x="48.999961853027344" y="25" font-family="Virgil, Segoe UI Emoji" font-size="20px" fill="#2f9e44" text-anchor="middle" style="white-space: pre;" direction="ltr" dominant-baseline="text-before-edge">forecasts</text></g><g stroke-linecap="round"><g transform="translate(353.0292982339233 1280.2365166497311) rotate(0 55.53360326366351 37.052127148760064)"><path d="M0.3 0.13 C15.48 5.73, 71.76 19.97, 90.39 32.44 C109.02 44.91, 108.44 68.13, 112.08 74.95 M-1.01 -0.85 C14.03 4.52, 70.46 18.4, 89.14 30.74 C107.83 43.09, 107.25 65.95, 111.12 73.2" stroke="#1e1e1e" stroke-width="1" fill="none"></path></g><g transform="translate(353.0292982339233 1280.2365166497311) rotate(0 55.53360326366351 37.052127148760064)"><path d="M97.35 53.16 C101.67 58.08, 105.6 62.93, 110.38 71.87 M97.92 54.06 C100.84 60.34, 105.83 66.61, 111.08 72.58" stroke="#1e1e1e" stroke-width="1" fill="none"></path></g><g transform="translate(353.0292982339233 1280.2365166497311) rotate(0 55.53360326366351 37.052127148760064)"><path d="M112.89 48.64 C113.42 54.69, 113.58 60.64, 110.38 71.87 M113.46 49.53 C111.42 57.12, 111.45 64.83, 111.08 72.58" stroke="#1e1e1e" stroke-width="1" fill="none"></path></g></g><mask></mask><g mask="url(#mask-8-58LIYIcuC3KbHY8FbRS)" stroke-linecap="round"><g transform="translate(184.29905071884707 1472.6944552216146) rotate(0 77.07214035234819 56.26608348428749)"><path d="M-0.73 0.87 C22.34 6.56, 112.18 16.03, 138.04 34.44 C163.89 52.84, 151.43 98.31, 154.41 111.32 M1.09 0.28 C24 6.04, 111.5 16.71, 136.89 35.37 C162.28 54.03, 150.74 99.18, 153.43 112.25" stroke="#1e1e1e" stroke-width="1" fill="none"></path></g><g transform="translate(184.29905071884707 1472.6944552216146) rotate(0 77.07214035234819 56.26608348428749)"><path d="M144.67 83.41 C144.12 91, 147.57 101.06, 154.15 111.7 M143.91 83.24 C146.25 93.55, 150.06 104.42, 154.16 112.75" stroke="#1e1e1e" stroke-width="1" fill="none"></path></g><g transform="translate(184.29905071884707 1472.6944552216146) rotate(0 77.07214035234819 56.26608348428749)"><path d="M165.2 83.45 C159.12 90.91, 157.05 100.96, 154.15 111.7 M164.44 83.28 C159.27 93.75, 155.58 104.61, 154.16 112.75" stroke="#1e1e1e" stroke-width="1" fill="none"></path></g></g><mask id="mask-8-58LIYIcuC3KbHY8FbRS"><rect x="0" y="0" fill="#fff" width="439.1199298133603" height="1684.7418852120945"></rect><rect x="306.65059958375343" y="1495.7859918068261" fill="#000" width="32.119964599609375" height="25" opacity="1"></rect></mask><g transform="translate(306.65059958375355 1495.7859918068261) rotate(0 -45.27940851255818 33.17454689907595)"><text x="16.059982299804688" y="0" font-family="Virgil, Segoe UI Emoji" font-size="20px" fill="#1e1e1e" text-anchor="middle" style="white-space: pre;" direction="ltr" dominant-baseline="text-before-edge">Yes</text></g><g stroke-linecap="round"><g transform="translate(334.5744274119618 1522.7862474526532) rotate(0 72.27552269430242 -27.64346115817864)"><path d="M-0.6 -0.58 C23.22 -9.58, 118.64 -45.85, 142.87 -55.06 M1.29 1.74 C25.5 -7.56, 121.27 -47.61, 145.15 -57.02" stroke="#1e1e1e" stroke-width="1" fill="none"></path></g></g><mask></mask><g mask="url(#mask-WGSS5pzqa1h0XzjZA4sPd)" stroke-linecap="round"><g transform="translate(48.83248286765661 1399.914742577143) rotate(0 55.70128746890228 -466.61335376707956)"><path d="M-0.86 -1.04 C-5.27 -83.57, -51.85 -339.68, -27.28 -495.21 C-2.72 -650.75, 117.39 -861.1, 146.51 -934.25 M0.89 1.03 C-3.64 -81.4, -52.58 -338.63, -28.46 -494.27 C-4.34 -649.91, 116.18 -859.73, 145.59 -932.82" stroke="#1e1e1e" stroke-width="1" fill="none"></path></g><g transform="translate(48.83248286765661 1399.914742577143) rotate(0 55.70128746890228 -466.61335376707956)"><path d="M141.11 -903.67 C141.6 -910.33, 144.48 -915.74, 146.15 -931.81 M143.72 -903.04 C143.07 -912, 144.62 -923.02, 145.48 -933.63" stroke="#1e1e1e" stroke-width="1" fill="none"></path></g><g transform="translate(48.83248286765661 1399.914742577143) rotate(0 55.70128746890228 -466.61335376707956)"><path d="M122.55 -912.42 C127.34 -916.92, 134.51 -920.31, 146.15 -931.81 M125.16 -911.79 C130.65 -917.88, 138.31 -926.02, 145.48 -933.63" stroke="#1e1e1e" stroke-width="1" fill="none"></path></g></g><mask id="mask-WGSS5pzqa1h0XzjZA4sPd"><rect x="0" y="0" fill="#fff" width="322.4786157105019" height="2434.3815605561663"></rect><rect x="10" y="893.3288388181186" fill="#000" width="23.959976196289062" height="25" opacity="1"></rect></mask><g transform="translate(10 893.3288388181186) rotate(0 94.53377033655889 39.972549991944845)"><text x="11.979988098144531" y="0" font-family="Virgil, Segoe UI Emoji" font-size="20px" fill="#1e1e1e" text-anchor="middle" style="white-space: pre;" direction="ltr" dominant-baseline="text-before-edge">No</text></g><g mask="url(#mask-XuBoc7aRNhvOjcTpnq7gm)" stroke-linecap="round"><g transform="translate(619.8955382992821 1394.5442436232406) rotate(0 -36.17411829682078 -464.72861580817)"><path d="M-0.59 -0.38 C13.78 -77, 113.74 -305.94, 86.69 -460.72 C59.64 -615.5, -121.17 -851.07, -162.9 -929.08 M1.3 -1.62 C15.54 -78.01, 113.64 -305.17, 86.15 -459.53 C58.65 -613.88, -122 -849.76, -163.66 -927.75" stroke="#1e1e1e" stroke-width="1" fill="none"></path></g><g transform="translate(619.8955382992821 1394.5442436232406) rotate(0 -36.17411829682078 -464.72861580817)"><path d="M-140.57 -908.11 C-148.84 -915.67, -155.7 -923.15, -163.12 -927.42 M-139.61 -909.48 C-148.08 -916.14, -154.75 -920.74, -164.06 -927.63" stroke="#1e1e1e" stroke-width="1" fill="none"></path></g><g transform="translate(619.8955382992821 1394.5442436232406) rotate(0 -36.17411829682078 -464.72861580817)"><path d="M-157.92 -897.16 C-160.27 -908.31, -161.29 -919.47, -163.12 -927.42 M-156.96 -898.53 C-159.74 -908.94, -160.72 -917.13, -164.06 -927.63" stroke="#1e1e1e" stroke-width="1" fill="none"></path></g></g><mask id="mask-XuBoc7aRNhvOjcTpnq7gm"><rect x="0" y="0" fill="#fff" width="968.7286564967613" height="2423.6405626483615"></rect><rect x="693.8435334635765" y="921.9714999055986" fill="#000" width="23.959976196289062" height="25" opacity="1"></rect></mask><g transform="translate(693.8435334635765 921.9714999055986) rotate(0 -110.12211346111508 7.844127909471979)"><text x="11.979988098144531" y="0" font-family="Virgil, Segoe UI Emoji" font-size="20px" fill="#1e1e1e" text-anchor="middle" style="white-space: pre;" direction="ltr" dominant-baseline="text-before-edge">No</text></g></svg>